<mxfile host="app.diagrams.net" modified="2021-12-03T06:58:30.478Z" agent="5.0 (Windows NT 10.0; Win64; x64) AppleWebKit/537.36 (KHTML, like Gecko) Chrome/96.0.4664.45 Safari/537.36" etag="Wj7xxZkBnNOsCmOhvtqS" version="15.8.8" type="github">
  <diagram id="Ce30TU36K85A4A7V1VK_" name="Page-1">
    <mxGraphModel dx="1056" dy="611" grid="0" gridSize="10" guides="1" tooltips="1" connect="1" arrows="1" fold="1" page="1" pageScale="1" pageWidth="8027" pageHeight="11069" math="0" shadow="0">
      <root>
        <mxCell id="0" />
        <mxCell id="1" parent="0" />
        <mxCell id="fJ3_scPnoTS_HqS6vnvH-1" value="DPI App" style="rounded=1;whiteSpace=wrap;html=1;fillColor=#d5e8d4;gradientColor=#97d077;strokeColor=#82b366;fontStyle=1;fontFamily=Comic Sans MS;fontSize=15;" vertex="1" parent="1">
          <mxGeometry x="120" y="60" width="120" height="60" as="geometry" />
        </mxCell>
        <mxCell id="fJ3_scPnoTS_HqS6vnvH-2" value="CMS Message" style="rounded=1;whiteSpace=wrap;html=1;fillColor=#d5e8d4;gradientColor=#97d077;strokeColor=#82b366;fontFamily=Comic Sans MS;fontSize=15;fontStyle=1" vertex="1" parent="1">
          <mxGeometry x="360" y="60" width="120" height="60" as="geometry" />
        </mxCell>
        <mxCell id="fJ3_scPnoTS_HqS6vnvH-3" value="Remote Control Service Client" style="rounded=1;whiteSpace=wrap;html=1;fillColor=#d5e8d4;gradientColor=#97d077;strokeColor=#82b366;fontSize=15;fontStyle=1;fontFamily=Comic Sans MS;" vertex="1" parent="1">
          <mxGeometry x="600" y="60" width="120" height="60" as="geometry" />
        </mxCell>
        <mxCell id="fJ3_scPnoTS_HqS6vnvH-4" value="" style="rounded=0;whiteSpace=wrap;html=1;direction=south;fillColor=#647687;fontColor=#ffffff;strokeColor=#314354;" vertex="1" parent="1">
          <mxGeometry x="170" y="190" width="10" height="90" as="geometry" />
        </mxCell>
        <mxCell id="fJ3_scPnoTS_HqS6vnvH-5" value="" style="rounded=0;whiteSpace=wrap;html=1;direction=south;fillColor=#647687;fontColor=#ffffff;strokeColor=#314354;" vertex="1" parent="1">
          <mxGeometry x="660" y="190" width="10" height="270" as="geometry" />
        </mxCell>
        <mxCell id="fJ3_scPnoTS_HqS6vnvH-6" value="" style="rounded=0;whiteSpace=wrap;html=1;direction=south;fillColor=#647687;fontColor=#ffffff;strokeColor=#314354;" vertex="1" parent="1">
          <mxGeometry x="415" y="190" width="10" height="90" as="geometry" />
        </mxCell>
        <mxCell id="fJ3_scPnoTS_HqS6vnvH-7" value="" style="endArrow=classic;html=1;rounded=0;" edge="1" parent="1">
          <mxGeometry relative="1" as="geometry">
            <mxPoint x="195" y="220" as="sourcePoint" />
            <mxPoint x="415" y="210" as="targetPoint" />
          </mxGeometry>
        </mxCell>
        <mxCell id="fJ3_scPnoTS_HqS6vnvH-8" value="Init" style="edgeLabel;resizable=0;html=1;align=center;verticalAlign=middle;" connectable="0" vertex="1" parent="fJ3_scPnoTS_HqS6vnvH-7">
          <mxGeometry relative="1" as="geometry" />
        </mxCell>
        <mxCell id="fJ3_scPnoTS_HqS6vnvH-9" value="cmsMsg_init" style="text;html=1;strokeColor=none;fillColor=none;align=center;verticalAlign=middle;whiteSpace=wrap;rounded=0;sketch=0;fontFamily=Comic Sans MS;" vertex="1" parent="1">
          <mxGeometry x="470" y="200" width="60" height="30" as="geometry" />
        </mxCell>
        <mxCell id="fJ3_scPnoTS_HqS6vnvH-10" value="" style="endArrow=classic;html=1;rounded=1;sketch=0;curved=0;" edge="1" parent="1">
          <mxGeometry width="50" height="50" relative="1" as="geometry">
            <mxPoint x="430" y="200" as="sourcePoint" />
            <mxPoint x="430" y="240" as="targetPoint" />
            <Array as="points">
              <mxPoint x="460" y="200" />
              <mxPoint x="460" y="220" />
              <mxPoint x="460" y="240" />
            </Array>
          </mxGeometry>
        </mxCell>
        <mxCell id="fJ3_scPnoTS_HqS6vnvH-11" value="" style="endArrow=classic;html=1;rounded=0;" edge="1" parent="1">
          <mxGeometry relative="1" as="geometry">
            <mxPoint x="410" y="240" as="sourcePoint" />
            <mxPoint x="190" y="250" as="targetPoint" />
          </mxGeometry>
        </mxCell>
        <mxCell id="fJ3_scPnoTS_HqS6vnvH-12" value="Object" style="edgeLabel;resizable=0;html=1;align=center;verticalAlign=middle;" connectable="0" vertex="1" parent="fJ3_scPnoTS_HqS6vnvH-11">
          <mxGeometry relative="1" as="geometry" />
        </mxCell>
        <mxCell id="fJ3_scPnoTS_HqS6vnvH-13" value="" style="endArrow=classic;html=1;rounded=1;sketch=0;curved=0;exitX=0.886;exitY=1.104;exitDx=0;exitDy=0;exitPerimeter=0;" edge="1" parent="1" source="fJ3_scPnoTS_HqS6vnvH-4">
          <mxGeometry width="50" height="50" relative="1" as="geometry">
            <mxPoint x="160" y="270" as="sourcePoint" />
            <mxPoint x="169" y="240" as="targetPoint" />
            <Array as="points">
              <mxPoint x="150" y="270" />
              <mxPoint x="150" y="240" />
            </Array>
          </mxGeometry>
        </mxCell>
        <mxCell id="fJ3_scPnoTS_HqS6vnvH-14" value="cmsObj_get" style="text;html=1;strokeColor=none;fillColor=none;align=center;verticalAlign=middle;whiteSpace=wrap;rounded=0;sketch=0;fontFamily=Comic Sans MS;" vertex="1" parent="1">
          <mxGeometry x="80" y="220" width="60" height="30" as="geometry" />
        </mxCell>
        <mxCell id="fJ3_scPnoTS_HqS6vnvH-15" value="" style="rounded=0;whiteSpace=wrap;html=1;direction=south;fillColor=#647687;fontColor=#ffffff;strokeColor=#314354;" vertex="1" parent="1">
          <mxGeometry x="170" y="310" width="10" height="150" as="geometry" />
        </mxCell>
        <mxCell id="fJ3_scPnoTS_HqS6vnvH-16" value="" style="rounded=0;whiteSpace=wrap;html=1;direction=south;fillColor=#647687;fontColor=#ffffff;strokeColor=#314354;" vertex="1" parent="1">
          <mxGeometry x="415" y="310" width="10" height="150" as="geometry" />
        </mxCell>
        <mxCell id="fJ3_scPnoTS_HqS6vnvH-19" value="" style="endArrow=classic;html=1;rounded=0;" edge="1" parent="1">
          <mxGeometry relative="1" as="geometry">
            <mxPoint x="650" y="240" as="sourcePoint" />
            <mxPoint x="430" y="250" as="targetPoint" />
          </mxGeometry>
        </mxCell>
        <mxCell id="fJ3_scPnoTS_HqS6vnvH-20" value="Init" style="edgeLabel;resizable=0;html=1;align=center;verticalAlign=middle;" connectable="0" vertex="1" parent="fJ3_scPnoTS_HqS6vnvH-19">
          <mxGeometry relative="1" as="geometry" />
        </mxCell>
        <mxCell id="fJ3_scPnoTS_HqS6vnvH-21" value="" style="endArrow=classic;html=1;rounded=0;" edge="1" parent="1">
          <mxGeometry relative="1" as="geometry">
            <mxPoint x="425" y="320" as="sourcePoint" />
            <mxPoint x="650" y="310" as="targetPoint" />
          </mxGeometry>
        </mxCell>
        <mxCell id="fJ3_scPnoTS_HqS6vnvH-22" value="Packet" style="edgeLabel;resizable=0;html=1;align=center;verticalAlign=middle;" connectable="0" vertex="1" parent="fJ3_scPnoTS_HqS6vnvH-21">
          <mxGeometry relative="1" as="geometry" />
        </mxCell>
        <mxCell id="fJ3_scPnoTS_HqS6vnvH-23" value="" style="endArrow=classic;html=1;rounded=1;sketch=0;curved=0;" edge="1" parent="1">
          <mxGeometry width="50" height="50" relative="1" as="geometry">
            <mxPoint x="670" y="295" as="sourcePoint" />
            <mxPoint x="670" y="330" as="targetPoint" />
            <Array as="points">
              <mxPoint x="690" y="295" />
              <mxPoint x="690" y="310" />
              <mxPoint x="690" y="330" />
            </Array>
          </mxGeometry>
        </mxCell>
        <mxCell id="fJ3_scPnoTS_HqS6vnvH-25" value="cmsMsg_receive" style="text;html=1;strokeColor=none;fillColor=none;align=center;verticalAlign=middle;whiteSpace=wrap;rounded=0;sketch=0;fontFamily=Comic Sans MS;" vertex="1" parent="1">
          <mxGeometry x="690" y="280" width="100" height="30" as="geometry" />
        </mxCell>
        <mxCell id="fJ3_scPnoTS_HqS6vnvH-26" value="" style="endArrow=classic;html=1;rounded=0;" edge="1" parent="1">
          <mxGeometry relative="1" as="geometry">
            <mxPoint x="440" y="270" as="sourcePoint" />
            <mxPoint x="650" y="260" as="targetPoint" />
          </mxGeometry>
        </mxCell>
        <mxCell id="fJ3_scPnoTS_HqS6vnvH-27" value="Object" style="edgeLabel;resizable=0;html=1;align=center;verticalAlign=middle;" connectable="0" vertex="1" parent="fJ3_scPnoTS_HqS6vnvH-26">
          <mxGeometry relative="1" as="geometry" />
        </mxCell>
        <mxCell id="fJ3_scPnoTS_HqS6vnvH-28" value="cmsObj_get" style="text;html=1;strokeColor=none;fillColor=none;align=center;verticalAlign=middle;whiteSpace=wrap;rounded=0;sketch=0;fontFamily=Comic Sans MS;" vertex="1" parent="1">
          <mxGeometry x="700" y="200" width="60" height="50" as="geometry" />
        </mxCell>
        <mxCell id="fJ3_scPnoTS_HqS6vnvH-29" value="" style="endArrow=classic;html=1;rounded=1;sketch=0;curved=0;" edge="1" parent="1">
          <mxGeometry width="50" height="50" relative="1" as="geometry">
            <mxPoint x="670" y="250" as="sourcePoint" />
            <mxPoint x="670" y="220" as="targetPoint" />
            <Array as="points">
              <mxPoint x="691" y="250" />
              <mxPoint x="691" y="220" />
            </Array>
          </mxGeometry>
        </mxCell>
        <mxCell id="fJ3_scPnoTS_HqS6vnvH-30" value="" style="endArrow=classic;html=1;rounded=1;sketch=0;curved=0;exitX=0.886;exitY=1.104;exitDx=0;exitDy=0;exitPerimeter=0;" edge="1" parent="1">
          <mxGeometry width="50" height="50" relative="1" as="geometry">
            <mxPoint x="168.95999999999992" y="359.7400000000001" as="sourcePoint" />
            <mxPoint x="168.9999999999999" y="330" as="targetPoint" />
            <Array as="points">
              <mxPoint x="150" y="360" />
              <mxPoint x="150" y="330" />
            </Array>
          </mxGeometry>
        </mxCell>
        <mxCell id="fJ3_scPnoTS_HqS6vnvH-31" value="cmsMsg_send" style="text;html=1;strokeColor=none;fillColor=none;align=center;verticalAlign=middle;whiteSpace=wrap;rounded=0;sketch=0;fontFamily=Comic Sans MS;" vertex="1" parent="1">
          <mxGeometry x="70" y="320" width="80" height="30" as="geometry" />
        </mxCell>
        <mxCell id="fJ3_scPnoTS_HqS6vnvH-32" value="" style="endArrow=classic;html=1;rounded=0;" edge="1" parent="1">
          <mxGeometry relative="1" as="geometry">
            <mxPoint x="180" y="330" as="sourcePoint" />
            <mxPoint x="405" y="320" as="targetPoint" />
          </mxGeometry>
        </mxCell>
        <mxCell id="fJ3_scPnoTS_HqS6vnvH-33" value="Packet" style="edgeLabel;resizable=0;html=1;align=center;verticalAlign=middle;" connectable="0" vertex="1" parent="fJ3_scPnoTS_HqS6vnvH-32">
          <mxGeometry relative="1" as="geometry" />
        </mxCell>
        <mxCell id="fJ3_scPnoTS_HqS6vnvH-34" value="cmsMsg_send" style="text;html=1;strokeColor=none;fillColor=none;align=center;verticalAlign=middle;whiteSpace=wrap;rounded=0;sketch=0;fontFamily=Comic Sans MS;" vertex="1" parent="1">
          <mxGeometry x="690" y="370" width="80" height="30" as="geometry" />
        </mxCell>
        <mxCell id="fJ3_scPnoTS_HqS6vnvH-35" value="" style="endArrow=classic;html=1;rounded=1;sketch=0;curved=0;" edge="1" parent="1">
          <mxGeometry width="50" height="50" relative="1" as="geometry">
            <mxPoint x="670" y="380" as="sourcePoint" />
            <mxPoint x="670" y="415" as="targetPoint" />
            <Array as="points">
              <mxPoint x="690" y="380" />
              <mxPoint x="690" y="395" />
              <mxPoint x="690" y="415" />
            </Array>
          </mxGeometry>
        </mxCell>
        <mxCell id="fJ3_scPnoTS_HqS6vnvH-36" value="" style="endArrow=classic;html=1;rounded=0;" edge="1" parent="1">
          <mxGeometry relative="1" as="geometry">
            <mxPoint x="650" y="390" as="sourcePoint" />
            <mxPoint x="435" y="400" as="targetPoint" />
          </mxGeometry>
        </mxCell>
        <mxCell id="fJ3_scPnoTS_HqS6vnvH-37" value="Blacklist" style="edgeLabel;resizable=0;html=1;align=center;verticalAlign=middle;" connectable="0" vertex="1" parent="fJ3_scPnoTS_HqS6vnvH-36">
          <mxGeometry relative="1" as="geometry" />
        </mxCell>
        <mxCell id="fJ3_scPnoTS_HqS6vnvH-38" value="" style="endArrow=classic;html=1;rounded=0;" edge="1" parent="1">
          <mxGeometry relative="1" as="geometry">
            <mxPoint x="395" y="400" as="sourcePoint" />
            <mxPoint x="180" y="410" as="targetPoint" />
          </mxGeometry>
        </mxCell>
        <mxCell id="fJ3_scPnoTS_HqS6vnvH-39" value="Blacklist" style="edgeLabel;resizable=0;html=1;align=center;verticalAlign=middle;" connectable="0" vertex="1" parent="fJ3_scPnoTS_HqS6vnvH-38">
          <mxGeometry relative="1" as="geometry" />
        </mxCell>
        <mxCell id="fJ3_scPnoTS_HqS6vnvH-40" value="cmsMsg_receive" style="text;html=1;strokeColor=none;fillColor=none;align=center;verticalAlign=middle;whiteSpace=wrap;rounded=0;sketch=0;fontFamily=Comic Sans MS;" vertex="1" parent="1">
          <mxGeometry x="60" y="380" width="100" height="30" as="geometry" />
        </mxCell>
        <mxCell id="fJ3_scPnoTS_HqS6vnvH-41" value="" style="endArrow=classic;html=1;rounded=1;sketch=0;curved=0;exitX=0.886;exitY=1.104;exitDx=0;exitDy=0;exitPerimeter=0;" edge="1" parent="1">
          <mxGeometry width="50" height="50" relative="1" as="geometry">
            <mxPoint x="168.95999999999992" y="429.7400000000001" as="sourcePoint" />
            <mxPoint x="168.9999999999999" y="400" as="targetPoint" />
            <Array as="points">
              <mxPoint x="150" y="430" />
              <mxPoint x="150" y="400" />
            </Array>
          </mxGeometry>
        </mxCell>
        <mxCell id="fJ3_scPnoTS_HqS6vnvH-44" value="" style="endArrow=none;dashed=1;html=1;rounded=1;sketch=0;curved=0;entryX=0.452;entryY=0.999;entryDx=0;entryDy=0;exitX=0;exitY=0.5;exitDx=0;exitDy=0;entryPerimeter=0;" edge="1" parent="1" source="fJ3_scPnoTS_HqS6vnvH-4" target="fJ3_scPnoTS_HqS6vnvH-1">
          <mxGeometry width="50" height="50" relative="1" as="geometry">
            <mxPoint x="150" y="160" as="sourcePoint" />
            <mxPoint x="200" y="110" as="targetPoint" />
          </mxGeometry>
        </mxCell>
        <mxCell id="fJ3_scPnoTS_HqS6vnvH-45" value="" style="endArrow=none;dashed=1;html=1;rounded=1;sketch=0;curved=0;entryX=1;entryY=0.5;entryDx=0;entryDy=0;exitX=0;exitY=0.5;exitDx=0;exitDy=0;" edge="1" parent="1" source="fJ3_scPnoTS_HqS6vnvH-15" target="fJ3_scPnoTS_HqS6vnvH-4">
          <mxGeometry width="50" height="50" relative="1" as="geometry">
            <mxPoint x="190" y="340" as="sourcePoint" />
            <mxPoint x="240" y="290" as="targetPoint" />
          </mxGeometry>
        </mxCell>
        <mxCell id="fJ3_scPnoTS_HqS6vnvH-46" value="" style="endArrow=none;dashed=1;html=1;rounded=1;sketch=0;curved=0;entryX=1;entryY=0.5;entryDx=0;entryDy=0;" edge="1" parent="1" target="fJ3_scPnoTS_HqS6vnvH-15">
          <mxGeometry width="50" height="50" relative="1" as="geometry">
            <mxPoint x="175" y="490" as="sourcePoint" />
            <mxPoint x="210" y="440" as="targetPoint" />
          </mxGeometry>
        </mxCell>
        <mxCell id="fJ3_scPnoTS_HqS6vnvH-47" value="" style="endArrow=none;dashed=1;html=1;rounded=1;sketch=0;curved=0;entryX=0.5;entryY=1;entryDx=0;entryDy=0;exitX=0;exitY=0.5;exitDx=0;exitDy=0;" edge="1" parent="1" source="fJ3_scPnoTS_HqS6vnvH-6" target="fJ3_scPnoTS_HqS6vnvH-2">
          <mxGeometry width="50" height="50" relative="1" as="geometry">
            <mxPoint x="420" y="170" as="sourcePoint" />
            <mxPoint x="470" y="120" as="targetPoint" />
          </mxGeometry>
        </mxCell>
        <mxCell id="fJ3_scPnoTS_HqS6vnvH-48" value="" style="endArrow=none;dashed=1;html=1;rounded=1;sketch=0;curved=0;" edge="1" parent="1">
          <mxGeometry width="50" height="50" relative="1" as="geometry">
            <mxPoint x="420" y="490" as="sourcePoint" />
            <mxPoint x="420" y="460" as="targetPoint" />
          </mxGeometry>
        </mxCell>
        <mxCell id="fJ3_scPnoTS_HqS6vnvH-49" value="" style="endArrow=none;dashed=1;html=1;rounded=1;sketch=0;curved=0;entryX=1;entryY=0.5;entryDx=0;entryDy=0;exitX=0;exitY=0.5;exitDx=0;exitDy=0;" edge="1" parent="1" source="fJ3_scPnoTS_HqS6vnvH-16" target="fJ3_scPnoTS_HqS6vnvH-6">
          <mxGeometry width="50" height="50" relative="1" as="geometry">
            <mxPoint x="380" y="330" as="sourcePoint" />
            <mxPoint x="430" y="280" as="targetPoint" />
          </mxGeometry>
        </mxCell>
        <mxCell id="fJ3_scPnoTS_HqS6vnvH-50" value="" style="endArrow=none;dashed=1;html=1;rounded=1;sketch=0;curved=0;entryX=0.5;entryY=1;entryDx=0;entryDy=0;exitX=0;exitY=0.5;exitDx=0;exitDy=0;" edge="1" parent="1">
          <mxGeometry width="50" height="50" relative="1" as="geometry">
            <mxPoint x="664.66" y="190" as="sourcePoint" />
            <mxPoint x="664.66" y="120.00000000000006" as="targetPoint" />
          </mxGeometry>
        </mxCell>
        <mxCell id="fJ3_scPnoTS_HqS6vnvH-51" value="" style="endArrow=none;dashed=1;html=1;rounded=1;sketch=0;curved=0;" edge="1" parent="1">
          <mxGeometry width="50" height="50" relative="1" as="geometry">
            <mxPoint x="665" y="490" as="sourcePoint" />
            <mxPoint x="665" y="460" as="targetPoint" />
          </mxGeometry>
        </mxCell>
        <mxCell id="fJ3_scPnoTS_HqS6vnvH-52" value="" style="endArrow=classic;html=1;rounded=0;" edge="1" parent="1">
          <mxGeometry relative="1" as="geometry">
            <mxPoint x="655" y="410" as="sourcePoint" />
            <mxPoint x="440" y="420" as="targetPoint" />
          </mxGeometry>
        </mxCell>
        <mxCell id="fJ3_scPnoTS_HqS6vnvH-53" value="List Block traffic" style="edgeLabel;resizable=0;html=1;align=center;verticalAlign=middle;" connectable="0" vertex="1" parent="fJ3_scPnoTS_HqS6vnvH-52">
          <mxGeometry relative="1" as="geometry" />
        </mxCell>
        <mxCell id="fJ3_scPnoTS_HqS6vnvH-54" value="" style="endArrow=classic;html=1;rounded=0;" edge="1" parent="1">
          <mxGeometry relative="1" as="geometry">
            <mxPoint x="395" y="420" as="sourcePoint" />
            <mxPoint x="180" y="430" as="targetPoint" />
          </mxGeometry>
        </mxCell>
        <mxCell id="fJ3_scPnoTS_HqS6vnvH-55" value="List Block traffic" style="edgeLabel;resizable=0;html=1;align=center;verticalAlign=middle;" connectable="0" vertex="1" parent="fJ3_scPnoTS_HqS6vnvH-54">
          <mxGeometry relative="1" as="geometry" />
        </mxCell>
      </root>
    </mxGraphModel>
  </diagram>
</mxfile>
